/vscmnt/brussel_pixiu_data/_data_brussel/112/vsc11236/PredSimResults/SUBJ09mtu3D/worker2.mot
version=1
nRows=4
nColumns=50
inDegrees=yes
endheader
                time	         pelvis_tilt	         pelvis_list	     pelvis_rotation	           pelvis_tx	           pelvis_ty	           pelvis_tz	       hip_flexion_r	     hip_adduction_r	      hip_rotation_r	        knee_angle_r	       ankle_angle_r	         mtp_angle_r	       hip_flexion_l	     hip_adduction_l	      hip_rotation_l	        knee_angle_l	       ankle_angle_l	         mtp_angle_l	    lumbar_extension	      lumbar_bending	     lumbar_rotation	 ercspn_r/activation	 intobl_r/activation	 extobl_r/activation	    abd_r/activation	    add_r/activation	hamstrings_r/activation	bifemsh_r/activation	glut_max_r/activation	iliopsoas_r/activation	rect_fem_r/activation	  vasti_r/activation	gastroc_r/activation	 soleus_r/activation	tib_ant_r/activation	 ercspn_l/activation	 intobl_l/activation	 extobl_l/activation	    abd_l/activation	    add_l/activation	hamstrings_l/activation	bifemsh_l/activation	glut_max_l/activation	iliopsoas_l/activation	rect_fem_l/activation	  vasti_l/activation	gastroc_l/activation	 soleus_l/activation	tib_ant_l/activation	
          0.99514236	        -11.30633607	         -5.15197239	          1.63788574	          1.23397653	          1.03833394	         -0.00239480	         42.63951718	          5.76077698	          2.14865377	        -26.15775246	        -27.96480543	          0.48848458	         -1.11301256	         -4.27251157	          3.65335683	        -14.57848261	        -26.17823130	         60.13698869	         -5.01691296	          5.36864095	         -1.11001752	          0.19767292	          0.10119508	          0.01000000	          0.03212098	          0.09137848	          0.17670905	          0.10823151	          0.09103539	          0.01000001	          0.01537853	          0.01000000	          0.01000000	          0.00999999	          0.01359225	          0.18205509	          0.00999999	          0.01000000	          0.03580052	          0.00999999	          0.01000000	          0.01000005	          0.02002707	          0.01000015	          0.84531529	          0.05063216	          0.16015712	          0.22655533	          0.01000007	
          1.00509378	        -11.26833271	         -5.41211388	          1.78085994	          1.25021321	          1.03602435	         -0.00149096	         41.93036285	          6.24884610	          2.93840470	        -26.75974413	        -27.06015275	          1.05618700	         -2.62010492	         -4.67819887	          3.07878249	        -13.47410027	        -26.61647992	         60.00205418	         -4.59335493	          5.73350909	         -1.43385930	          0.16955474	          0.08679888	          0.01000000	          0.06463807	          0.08455470	          0.15157009	          0.09283430	          0.13208014	          0.01000001	          0.01319076	          0.10026729	          0.02491682	          0.03979254	          0.01165859	          0.19565512	          0.01000000	          0.01000000	          0.03070748	          0.01000000	          0.01000002	          0.01000006	          0.01717799	          0.01000002	          0.78034957	          0.05377813	          0.13737358	          0.22949429	          0.01000010	
          1.01504521	        -11.23505696	         -5.66891767	          1.89810129	          1.26667265	          1.03358278	         -0.00058053	         41.19045926	          6.68141942	          3.64298771	        -27.77604207	        -25.25736094	          2.89581983	         -4.10179776	         -5.06652479	          2.46764379	        -12.44191072	        -27.03746255	         59.67628877	         -4.13525274	          6.09788844	         -1.74654258	          0.15552492	          0.08416580	          0.01000000	          0.09410005	          0.07651575	          0.13000744	          0.07962753	          0.18475499	          0.01000000	          0.01131422	          0.09540212	          0.02137212	          0.03413158	          0.01000002	          0.18609759	          0.00999999	          0.01000000	          0.02633897	          0.01000000	          0.01000004	          0.01000004	          0.01473422	          0.01000001	          0.66933556	          0.04672787	          0.11783059	          0.23238503	          0.01000008	
          1.02499663	        -11.21036021	         -5.90928098	          1.99332798	          1.28318571	          1.03113909	          0.00036255	         40.36803029	          7.08886053	          4.25769125	        -28.77360491	        -23.50038634	          5.91010569	         -5.49019244	         -5.42172032	          1.84067307	        -11.58066240	        -27.42172567	         59.10379664	         -3.66210864	          6.44231895	         -2.05152035	          0.15560962	          0.10893232	          0.01000000	          0.11802378	          0.07231037	          0.11151233	          0.06829959	          0.21983174	          0.01000000	          0.01000000	          0.09410791	          0.01833169	          0.02927596	          0.01000000	          0.19011073	          0.00999999	          0.01000000	          0.02259194	          0.01000000	          0.01000003	          0.01000005	          0.01263810	          0.01000001	          0.57411461	          0.04008028	          0.10106781	          0.23512972	          0.01000009	
